<?xml version="1.0" encoding="UTF-8" standalone="no"?>
<svg>
<metadata>built for 'DuxCBfr1252' braille table on Sun Dec 07 11:53:12 CET 2014</metadata>
<defs>
<font horiz-adv-x="540" id="Braille-DuxCBfr1252" vert-adv-y="">
<font-face ascent="614" descent="-236" font-family="Braille" font-stretch="normal" font-weight="normal" units-per-em="1024"/>
<missing-glyph/>
<glyph d="M 71 543 m -17, 0 a 17,17 0 1,1 34,0 a 17,17 0 1,1 -34,0 z M 71 307 m -17, 0 a 17,17 0 1,1 34,0 a 17,17 0 1,1 -34,0 z M 71 71 m -17, 0 a 17,17 0 1,1 34,0 a 17,17 0 1,1 -34,0 z M 284 543 m -17, 0 a 17,17 0 1,1 34,0 a 17,17 0 1,1 -34,0 z M 284 307 m -17, 0 a 17,17 0 1,1 34,0 a 17,17 0 1,1 -34,0 z M 284 71 m -17, 0 a 17,17 0 1,1 34,0 a 17,17 0 1,1 -34,0 z " horiz-adv-x="540" unicode=" "/>
<glyph d="M 71 543 m -71, 0 a 71,71 0 1,1 142,0 a 71,71 0 1,1 -142,0 z M 71 307 m -17, 0 a 17,17 0 1,1 34,0 a 17,17 0 1,1 -34,0 z M 71 71 m -17, 0 a 17,17 0 1,1 34,0 a 17,17 0 1,1 -34,0 z M 284 543 m -17, 0 a 17,17 0 1,1 34,0 a 17,17 0 1,1 -34,0 z M 284 307 m -17, 0 a 17,17 0 1,1 34,0 a 17,17 0 1,1 -34,0 z M 284 71 m -17, 0 a 17,17 0 1,1 34,0 a 17,17 0 1,1 -34,0 z " horiz-adv-x="540" unicode="a"/>
<glyph d="M 71 543 m -17, 0 a 17,17 0 1,1 34,0 a 17,17 0 1,1 -34,0 z M 71 307 m -71, 0 a 71,71 0 1,1 142,0 a 71,71 0 1,1 -142,0 z M 71 71 m -17, 0 a 17,17 0 1,1 34,0 a 17,17 0 1,1 -34,0 z M 284 543 m -17, 0 a 17,17 0 1,1 34,0 a 17,17 0 1,1 -34,0 z M 284 307 m -17, 0 a 17,17 0 1,1 34,0 a 17,17 0 1,1 -34,0 z M 284 71 m -17, 0 a 17,17 0 1,1 34,0 a 17,17 0 1,1 -34,0 z " horiz-adv-x="540" unicode=","/>
<glyph d="M 71 543 m -71, 0 a 71,71 0 1,1 142,0 a 71,71 0 1,1 -142,0 z M 71 307 m -71, 0 a 71,71 0 1,1 142,0 a 71,71 0 1,1 -142,0 z M 71 71 m -17, 0 a 17,17 0 1,1 34,0 a 17,17 0 1,1 -34,0 z M 284 543 m -17, 0 a 17,17 0 1,1 34,0 a 17,17 0 1,1 -34,0 z M 284 307 m -17, 0 a 17,17 0 1,1 34,0 a 17,17 0 1,1 -34,0 z M 284 71 m -17, 0 a 17,17 0 1,1 34,0 a 17,17 0 1,1 -34,0 z " horiz-adv-x="540" unicode="b"/>
<glyph d="M 71 543 m -17, 0 a 17,17 0 1,1 34,0 a 17,17 0 1,1 -34,0 z M 71 307 m -17, 0 a 17,17 0 1,1 34,0 a 17,17 0 1,1 -34,0 z M 71 71 m -71, 0 a 71,71 0 1,1 142,0 a 71,71 0 1,1 -142,0 z M 284 543 m -17, 0 a 17,17 0 1,1 34,0 a 17,17 0 1,1 -34,0 z M 284 307 m -17, 0 a 17,17 0 1,1 34,0 a 17,17 0 1,1 -34,0 z M 284 71 m -17, 0 a 17,17 0 1,1 34,0 a 17,17 0 1,1 -34,0 z " horiz-adv-x="540" unicode="."/>
<glyph d="M 71 543 m -71, 0 a 71,71 0 1,1 142,0 a 71,71 0 1,1 -142,0 z M 71 307 m -17, 0 a 17,17 0 1,1 34,0 a 17,17 0 1,1 -34,0 z M 71 71 m -71, 0 a 71,71 0 1,1 142,0 a 71,71 0 1,1 -142,0 z M 284 543 m -17, 0 a 17,17 0 1,1 34,0 a 17,17 0 1,1 -34,0 z M 284 307 m -17, 0 a 17,17 0 1,1 34,0 a 17,17 0 1,1 -34,0 z M 284 71 m -17, 0 a 17,17 0 1,1 34,0 a 17,17 0 1,1 -34,0 z " horiz-adv-x="540" unicode="k"/>
<glyph d="M 71 543 m -17, 0 a 17,17 0 1,1 34,0 a 17,17 0 1,1 -34,0 z M 71 307 m -71, 0 a 71,71 0 1,1 142,0 a 71,71 0 1,1 -142,0 z M 71 71 m -71, 0 a 71,71 0 1,1 142,0 a 71,71 0 1,1 -142,0 z M 284 543 m -17, 0 a 17,17 0 1,1 34,0 a 17,17 0 1,1 -34,0 z M 284 307 m -17, 0 a 17,17 0 1,1 34,0 a 17,17 0 1,1 -34,0 z M 284 71 m -17, 0 a 17,17 0 1,1 34,0 a 17,17 0 1,1 -34,0 z " horiz-adv-x="540" unicode=";"/>
<glyph d="M 71 543 m -71, 0 a 71,71 0 1,1 142,0 a 71,71 0 1,1 -142,0 z M 71 307 m -71, 0 a 71,71 0 1,1 142,0 a 71,71 0 1,1 -142,0 z M 71 71 m -71, 0 a 71,71 0 1,1 142,0 a 71,71 0 1,1 -142,0 z M 284 543 m -17, 0 a 17,17 0 1,1 34,0 a 17,17 0 1,1 -34,0 z M 284 307 m -17, 0 a 17,17 0 1,1 34,0 a 17,17 0 1,1 -34,0 z M 284 71 m -17, 0 a 17,17 0 1,1 34,0 a 17,17 0 1,1 -34,0 z " horiz-adv-x="540" unicode="l"/>
<glyph d="M 71 543 m -17, 0 a 17,17 0 1,1 34,0 a 17,17 0 1,1 -34,0 z M 71 307 m -17, 0 a 17,17 0 1,1 34,0 a 17,17 0 1,1 -34,0 z M 71 71 m -17, 0 a 17,17 0 1,1 34,0 a 17,17 0 1,1 -34,0 z M 284 543 m -71, 0 a 71,71 0 1,1 142,0 a 71,71 0 1,1 -142,0 z M 284 307 m -17, 0 a 17,17 0 1,1 34,0 a 17,17 0 1,1 -34,0 z M 284 71 m -17, 0 a 17,17 0 1,1 34,0 a 17,17 0 1,1 -34,0 z " horiz-adv-x="540" unicode="$"/>
<glyph d="M 71 543 m -71, 0 a 71,71 0 1,1 142,0 a 71,71 0 1,1 -142,0 z M 71 307 m -17, 0 a 17,17 0 1,1 34,0 a 17,17 0 1,1 -34,0 z M 71 71 m -17, 0 a 17,17 0 1,1 34,0 a 17,17 0 1,1 -34,0 z M 284 543 m -71, 0 a 71,71 0 1,1 142,0 a 71,71 0 1,1 -142,0 z M 284 307 m -17, 0 a 17,17 0 1,1 34,0 a 17,17 0 1,1 -34,0 z M 284 71 m -17, 0 a 17,17 0 1,1 34,0 a 17,17 0 1,1 -34,0 z " horiz-adv-x="540" unicode="c"/>
<glyph d="M 71 543 m -17, 0 a 17,17 0 1,1 34,0 a 17,17 0 1,1 -34,0 z M 71 307 m -71, 0 a 71,71 0 1,1 142,0 a 71,71 0 1,1 -142,0 z M 71 71 m -17, 0 a 17,17 0 1,1 34,0 a 17,17 0 1,1 -34,0 z M 284 543 m -71, 0 a 71,71 0 1,1 142,0 a 71,71 0 1,1 -142,0 z M 284 307 m -17, 0 a 17,17 0 1,1 34,0 a 17,17 0 1,1 -34,0 z M 284 71 m -17, 0 a 17,17 0 1,1 34,0 a 17,17 0 1,1 -34,0 z " horiz-adv-x="540" unicode="i"/>
<glyph d="M 71 543 m -71, 0 a 71,71 0 1,1 142,0 a 71,71 0 1,1 -142,0 z M 71 307 m -71, 0 a 71,71 0 1,1 142,0 a 71,71 0 1,1 -142,0 z M 71 71 m -17, 0 a 17,17 0 1,1 34,0 a 17,17 0 1,1 -34,0 z M 284 543 m -71, 0 a 71,71 0 1,1 142,0 a 71,71 0 1,1 -142,0 z M 284 307 m -17, 0 a 17,17 0 1,1 34,0 a 17,17 0 1,1 -34,0 z M 284 71 m -17, 0 a 17,17 0 1,1 34,0 a 17,17 0 1,1 -34,0 z " horiz-adv-x="540" unicode="f"/>
<glyph d="M 71 543 m -17, 0 a 17,17 0 1,1 34,0 a 17,17 0 1,1 -34,0 z M 71 307 m -17, 0 a 17,17 0 1,1 34,0 a 17,17 0 1,1 -34,0 z M 71 71 m -71, 0 a 71,71 0 1,1 142,0 a 71,71 0 1,1 -142,0 z M 284 543 m -71, 0 a 71,71 0 1,1 142,0 a 71,71 0 1,1 -142,0 z M 284 307 m -17, 0 a 17,17 0 1,1 34,0 a 17,17 0 1,1 -34,0 z M 284 71 m -17, 0 a 17,17 0 1,1 34,0 a 17,17 0 1,1 -34,0 z " horiz-adv-x="540" unicode="^"/>
<glyph d="M 71 543 m -71, 0 a 71,71 0 1,1 142,0 a 71,71 0 1,1 -142,0 z M 71 307 m -17, 0 a 17,17 0 1,1 34,0 a 17,17 0 1,1 -34,0 z M 71 71 m -71, 0 a 71,71 0 1,1 142,0 a 71,71 0 1,1 -142,0 z M 284 543 m -71, 0 a 71,71 0 1,1 142,0 a 71,71 0 1,1 -142,0 z M 284 307 m -17, 0 a 17,17 0 1,1 34,0 a 17,17 0 1,1 -34,0 z M 284 71 m -17, 0 a 17,17 0 1,1 34,0 a 17,17 0 1,1 -34,0 z " horiz-adv-x="540" unicode="m"/>
<glyph d="M 71 543 m -17, 0 a 17,17 0 1,1 34,0 a 17,17 0 1,1 -34,0 z M 71 307 m -71, 0 a 71,71 0 1,1 142,0 a 71,71 0 1,1 -142,0 z M 71 71 m -71, 0 a 71,71 0 1,1 142,0 a 71,71 0 1,1 -142,0 z M 284 543 m -71, 0 a 71,71 0 1,1 142,0 a 71,71 0 1,1 -142,0 z M 284 307 m -17, 0 a 17,17 0 1,1 34,0 a 17,17 0 1,1 -34,0 z M 284 71 m -17, 0 a 17,17 0 1,1 34,0 a 17,17 0 1,1 -34,0 z " horiz-adv-x="540" unicode="s"/>
<glyph d="M 71 543 m -71, 0 a 71,71 0 1,1 142,0 a 71,71 0 1,1 -142,0 z M 71 307 m -71, 0 a 71,71 0 1,1 142,0 a 71,71 0 1,1 -142,0 z M 71 71 m -71, 0 a 71,71 0 1,1 142,0 a 71,71 0 1,1 -142,0 z M 284 543 m -71, 0 a 71,71 0 1,1 142,0 a 71,71 0 1,1 -142,0 z M 284 307 m -17, 0 a 17,17 0 1,1 34,0 a 17,17 0 1,1 -34,0 z M 284 71 m -17, 0 a 17,17 0 1,1 34,0 a 17,17 0 1,1 -34,0 z " horiz-adv-x="540" unicode="p"/>
<glyph d="M 71 543 m -17, 0 a 17,17 0 1,1 34,0 a 17,17 0 1,1 -34,0 z M 71 307 m -17, 0 a 17,17 0 1,1 34,0 a 17,17 0 1,1 -34,0 z M 71 71 m -17, 0 a 17,17 0 1,1 34,0 a 17,17 0 1,1 -34,0 z M 284 543 m -17, 0 a 17,17 0 1,1 34,0 a 17,17 0 1,1 -34,0 z M 284 307 m -71, 0 a 71,71 0 1,1 142,0 a 71,71 0 1,1 -142,0 z M 284 71 m -17, 0 a 17,17 0 1,1 34,0 a 17,17 0 1,1 -34,0 z " horiz-adv-x="540" unicode="~"/>
<glyph d="M 71 543 m -71, 0 a 71,71 0 1,1 142,0 a 71,71 0 1,1 -142,0 z M 71 307 m -17, 0 a 17,17 0 1,1 34,0 a 17,17 0 1,1 -34,0 z M 71 71 m -17, 0 a 17,17 0 1,1 34,0 a 17,17 0 1,1 -34,0 z M 284 543 m -17, 0 a 17,17 0 1,1 34,0 a 17,17 0 1,1 -34,0 z M 284 307 m -71, 0 a 71,71 0 1,1 142,0 a 71,71 0 1,1 -142,0 z M 284 71 m -17, 0 a 17,17 0 1,1 34,0 a 17,17 0 1,1 -34,0 z " horiz-adv-x="540" unicode="e"/>
<glyph d="M 71 543 m -17, 0 a 17,17 0 1,1 34,0 a 17,17 0 1,1 -34,0 z M 71 307 m -71, 0 a 71,71 0 1,1 142,0 a 71,71 0 1,1 -142,0 z M 71 71 m -17, 0 a 17,17 0 1,1 34,0 a 17,17 0 1,1 -34,0 z M 284 543 m -17, 0 a 17,17 0 1,1 34,0 a 17,17 0 1,1 -34,0 z M 284 307 m -71, 0 a 71,71 0 1,1 142,0 a 71,71 0 1,1 -142,0 z M 284 71 m -17, 0 a 17,17 0 1,1 34,0 a 17,17 0 1,1 -34,0 z " horiz-adv-x="540" unicode=":"/>
<glyph d="M 71 543 m -71, 0 a 71,71 0 1,1 142,0 a 71,71 0 1,1 -142,0 z M 71 307 m -71, 0 a 71,71 0 1,1 142,0 a 71,71 0 1,1 -142,0 z M 71 71 m -17, 0 a 17,17 0 1,1 34,0 a 17,17 0 1,1 -34,0 z M 284 543 m -17, 0 a 17,17 0 1,1 34,0 a 17,17 0 1,1 -34,0 z M 284 307 m -71, 0 a 71,71 0 1,1 142,0 a 71,71 0 1,1 -142,0 z M 284 71 m -17, 0 a 17,17 0 1,1 34,0 a 17,17 0 1,1 -34,0 z " horiz-adv-x="540" unicode="h"/>
<glyph d="M 71 543 m -17, 0 a 17,17 0 1,1 34,0 a 17,17 0 1,1 -34,0 z M 71 307 m -17, 0 a 17,17 0 1,1 34,0 a 17,17 0 1,1 -34,0 z M 71 71 m -71, 0 a 71,71 0 1,1 142,0 a 71,71 0 1,1 -142,0 z M 284 543 m -17, 0 a 17,17 0 1,1 34,0 a 17,17 0 1,1 -34,0 z M 284 307 m -71, 0 a 71,71 0 1,1 142,0 a 71,71 0 1,1 -142,0 z M 284 71 m -17, 0 a 17,17 0 1,1 34,0 a 17,17 0 1,1 -34,0 z " horiz-adv-x="540" unicode="*"/>
<glyph d="M 71 543 m -71, 0 a 71,71 0 1,1 142,0 a 71,71 0 1,1 -142,0 z M 71 307 m -17, 0 a 17,17 0 1,1 34,0 a 17,17 0 1,1 -34,0 z M 71 71 m -71, 0 a 71,71 0 1,1 142,0 a 71,71 0 1,1 -142,0 z M 284 543 m -17, 0 a 17,17 0 1,1 34,0 a 17,17 0 1,1 -34,0 z M 284 307 m -71, 0 a 71,71 0 1,1 142,0 a 71,71 0 1,1 -142,0 z M 284 71 m -17, 0 a 17,17 0 1,1 34,0 a 17,17 0 1,1 -34,0 z " horiz-adv-x="540" unicode="o"/>
<glyph d="M 71 543 m -17, 0 a 17,17 0 1,1 34,0 a 17,17 0 1,1 -34,0 z M 71 307 m -71, 0 a 71,71 0 1,1 142,0 a 71,71 0 1,1 -142,0 z M 71 71 m -71, 0 a 71,71 0 1,1 142,0 a 71,71 0 1,1 -142,0 z M 284 543 m -17, 0 a 17,17 0 1,1 34,0 a 17,17 0 1,1 -34,0 z M 284 307 m -71, 0 a 71,71 0 1,1 142,0 a 71,71 0 1,1 -142,0 z M 284 71 m -17, 0 a 17,17 0 1,1 34,0 a 17,17 0 1,1 -34,0 z " horiz-adv-x="540" unicode="!"/>
<glyph d="M 71 543 m -71, 0 a 71,71 0 1,1 142,0 a 71,71 0 1,1 -142,0 z M 71 307 m -71, 0 a 71,71 0 1,1 142,0 a 71,71 0 1,1 -142,0 z M 71 71 m -71, 0 a 71,71 0 1,1 142,0 a 71,71 0 1,1 -142,0 z M 284 543 m -17, 0 a 17,17 0 1,1 34,0 a 17,17 0 1,1 -34,0 z M 284 307 m -71, 0 a 71,71 0 1,1 142,0 a 71,71 0 1,1 -142,0 z M 284 71 m -17, 0 a 17,17 0 1,1 34,0 a 17,17 0 1,1 -34,0 z " horiz-adv-x="540" unicode="r"/>
<glyph d="M 71 543 m -17, 0 a 17,17 0 1,1 34,0 a 17,17 0 1,1 -34,0 z M 71 307 m -17, 0 a 17,17 0 1,1 34,0 a 17,17 0 1,1 -34,0 z M 71 71 m -17, 0 a 17,17 0 1,1 34,0 a 17,17 0 1,1 -34,0 z M 284 543 m -71, 0 a 71,71 0 1,1 142,0 a 71,71 0 1,1 -142,0 z M 284 307 m -71, 0 a 71,71 0 1,1 142,0 a 71,71 0 1,1 -142,0 z M 284 71 m -17, 0 a 17,17 0 1,1 34,0 a 17,17 0 1,1 -34,0 z " horiz-adv-x="540" unicode="&gt;"/>
<glyph d="M 71 543 m -71, 0 a 71,71 0 1,1 142,0 a 71,71 0 1,1 -142,0 z M 71 307 m -17, 0 a 17,17 0 1,1 34,0 a 17,17 0 1,1 -34,0 z M 71 71 m -17, 0 a 17,17 0 1,1 34,0 a 17,17 0 1,1 -34,0 z M 284 543 m -71, 0 a 71,71 0 1,1 142,0 a 71,71 0 1,1 -142,0 z M 284 307 m -71, 0 a 71,71 0 1,1 142,0 a 71,71 0 1,1 -142,0 z M 284 71 m -17, 0 a 17,17 0 1,1 34,0 a 17,17 0 1,1 -34,0 z " horiz-adv-x="540" unicode="d"/>
<glyph d="M 71 543 m -17, 0 a 17,17 0 1,1 34,0 a 17,17 0 1,1 -34,0 z M 71 307 m -71, 0 a 71,71 0 1,1 142,0 a 71,71 0 1,1 -142,0 z M 71 71 m -17, 0 a 17,17 0 1,1 34,0 a 17,17 0 1,1 -34,0 z M 284 543 m -71, 0 a 71,71 0 1,1 142,0 a 71,71 0 1,1 -142,0 z M 284 307 m -71, 0 a 71,71 0 1,1 142,0 a 71,71 0 1,1 -142,0 z M 284 71 m -17, 0 a 17,17 0 1,1 34,0 a 17,17 0 1,1 -34,0 z " horiz-adv-x="540" unicode="j"/>
<glyph d="M 71 543 m -71, 0 a 71,71 0 1,1 142,0 a 71,71 0 1,1 -142,0 z M 71 307 m -71, 0 a 71,71 0 1,1 142,0 a 71,71 0 1,1 -142,0 z M 71 71 m -17, 0 a 17,17 0 1,1 34,0 a 17,17 0 1,1 -34,0 z M 284 543 m -71, 0 a 71,71 0 1,1 142,0 a 71,71 0 1,1 -142,0 z M 284 307 m -71, 0 a 71,71 0 1,1 142,0 a 71,71 0 1,1 -142,0 z M 284 71 m -17, 0 a 17,17 0 1,1 34,0 a 17,17 0 1,1 -34,0 z " horiz-adv-x="540" unicode="g"/>
<glyph d="M 71 543 m -17, 0 a 17,17 0 1,1 34,0 a 17,17 0 1,1 -34,0 z M 71 307 m -17, 0 a 17,17 0 1,1 34,0 a 17,17 0 1,1 -34,0 z M 71 71 m -71, 0 a 71,71 0 1,1 142,0 a 71,71 0 1,1 -142,0 z M 284 543 m -71, 0 a 71,71 0 1,1 142,0 a 71,71 0 1,1 -142,0 z M 284 307 m -71, 0 a 71,71 0 1,1 142,0 a 71,71 0 1,1 -142,0 z M 284 71 m -17, 0 a 17,17 0 1,1 34,0 a 17,17 0 1,1 -34,0 z " horiz-adv-x="540" unicode="@"/>
<glyph d="M 71 543 m -71, 0 a 71,71 0 1,1 142,0 a 71,71 0 1,1 -142,0 z M 71 307 m -17, 0 a 17,17 0 1,1 34,0 a 17,17 0 1,1 -34,0 z M 71 71 m -71, 0 a 71,71 0 1,1 142,0 a 71,71 0 1,1 -142,0 z M 284 543 m -71, 0 a 71,71 0 1,1 142,0 a 71,71 0 1,1 -142,0 z M 284 307 m -71, 0 a 71,71 0 1,1 142,0 a 71,71 0 1,1 -142,0 z M 284 71 m -17, 0 a 17,17 0 1,1 34,0 a 17,17 0 1,1 -34,0 z " horiz-adv-x="540" unicode="n"/>
<glyph d="M 71 543 m -17, 0 a 17,17 0 1,1 34,0 a 17,17 0 1,1 -34,0 z M 71 307 m -71, 0 a 71,71 0 1,1 142,0 a 71,71 0 1,1 -142,0 z M 71 71 m -71, 0 a 71,71 0 1,1 142,0 a 71,71 0 1,1 -142,0 z M 284 543 m -71, 0 a 71,71 0 1,1 142,0 a 71,71 0 1,1 -142,0 z M 284 307 m -71, 0 a 71,71 0 1,1 142,0 a 71,71 0 1,1 -142,0 z M 284 71 m -17, 0 a 17,17 0 1,1 34,0 a 17,17 0 1,1 -34,0 z " horiz-adv-x="540" unicode="t"/>
<glyph d="M 71 543 m -71, 0 a 71,71 0 1,1 142,0 a 71,71 0 1,1 -142,0 z M 71 307 m -71, 0 a 71,71 0 1,1 142,0 a 71,71 0 1,1 -142,0 z M 71 71 m -71, 0 a 71,71 0 1,1 142,0 a 71,71 0 1,1 -142,0 z M 284 543 m -71, 0 a 71,71 0 1,1 142,0 a 71,71 0 1,1 -142,0 z M 284 307 m -71, 0 a 71,71 0 1,1 142,0 a 71,71 0 1,1 -142,0 z M 284 71 m -17, 0 a 17,17 0 1,1 34,0 a 17,17 0 1,1 -34,0 z " horiz-adv-x="540" unicode="q"/>
<glyph d="M 71 543 m -17, 0 a 17,17 0 1,1 34,0 a 17,17 0 1,1 -34,0 z M 71 307 m -17, 0 a 17,17 0 1,1 34,0 a 17,17 0 1,1 -34,0 z M 71 71 m -17, 0 a 17,17 0 1,1 34,0 a 17,17 0 1,1 -34,0 z M 284 543 m -17, 0 a 17,17 0 1,1 34,0 a 17,17 0 1,1 -34,0 z M 284 307 m -17, 0 a 17,17 0 1,1 34,0 a 17,17 0 1,1 -34,0 z M 284 71 m -71, 0 a 71,71 0 1,1 142,0 a 71,71 0 1,1 -142,0 z " horiz-adv-x="540" unicode="'"/>
<glyph d="M 71 543 m -71, 0 a 71,71 0 1,1 142,0 a 71,71 0 1,1 -142,0 z M 71 307 m -17, 0 a 17,17 0 1,1 34,0 a 17,17 0 1,1 -34,0 z M 71 71 m -17, 0 a 17,17 0 1,1 34,0 a 17,17 0 1,1 -34,0 z M 284 543 m -17, 0 a 17,17 0 1,1 34,0 a 17,17 0 1,1 -34,0 z M 284 307 m -17, 0 a 17,17 0 1,1 34,0 a 17,17 0 1,1 -34,0 z M 284 71 m -71, 0 a 71,71 0 1,1 142,0 a 71,71 0 1,1 -142,0 z " horiz-adv-x="540" unicode="â"/>
<glyph d="M 71 543 m -17, 0 a 17,17 0 1,1 34,0 a 17,17 0 1,1 -34,0 z M 71 307 m -71, 0 a 71,71 0 1,1 142,0 a 71,71 0 1,1 -142,0 z M 71 71 m -17, 0 a 17,17 0 1,1 34,0 a 17,17 0 1,1 -34,0 z M 284 543 m -17, 0 a 17,17 0 1,1 34,0 a 17,17 0 1,1 -34,0 z M 284 307 m -17, 0 a 17,17 0 1,1 34,0 a 17,17 0 1,1 -34,0 z M 284 71 m -71, 0 a 71,71 0 1,1 142,0 a 71,71 0 1,1 -142,0 z " horiz-adv-x="540" unicode="?"/>
<glyph d="M 71 543 m -71, 0 a 71,71 0 1,1 142,0 a 71,71 0 1,1 -142,0 z M 71 307 m -71, 0 a 71,71 0 1,1 142,0 a 71,71 0 1,1 -142,0 z M 71 71 m -17, 0 a 17,17 0 1,1 34,0 a 17,17 0 1,1 -34,0 z M 284 543 m -17, 0 a 17,17 0 1,1 34,0 a 17,17 0 1,1 -34,0 z M 284 307 m -17, 0 a 17,17 0 1,1 34,0 a 17,17 0 1,1 -34,0 z M 284 71 m -71, 0 a 71,71 0 1,1 142,0 a 71,71 0 1,1 -142,0 z " horiz-adv-x="540" unicode="ê"/>
<glyph d="M 71 543 m -17, 0 a 17,17 0 1,1 34,0 a 17,17 0 1,1 -34,0 z M 71 307 m -17, 0 a 17,17 0 1,1 34,0 a 17,17 0 1,1 -34,0 z M 71 71 m -71, 0 a 71,71 0 1,1 142,0 a 71,71 0 1,1 -142,0 z M 284 543 m -17, 0 a 17,17 0 1,1 34,0 a 17,17 0 1,1 -34,0 z M 284 307 m -17, 0 a 17,17 0 1,1 34,0 a 17,17 0 1,1 -34,0 z M 284 71 m -71, 0 a 71,71 0 1,1 142,0 a 71,71 0 1,1 -142,0 z " horiz-adv-x="540" unicode="-"/>
<glyph d="M 71 543 m -71, 0 a 71,71 0 1,1 142,0 a 71,71 0 1,1 -142,0 z M 71 307 m -17, 0 a 17,17 0 1,1 34,0 a 17,17 0 1,1 -34,0 z M 71 71 m -71, 0 a 71,71 0 1,1 142,0 a 71,71 0 1,1 -142,0 z M 284 543 m -17, 0 a 17,17 0 1,1 34,0 a 17,17 0 1,1 -34,0 z M 284 307 m -17, 0 a 17,17 0 1,1 34,0 a 17,17 0 1,1 -34,0 z M 284 71 m -71, 0 a 71,71 0 1,1 142,0 a 71,71 0 1,1 -142,0 z " horiz-adv-x="540" unicode="u"/>
<glyph d="M 71 543 m -17, 0 a 17,17 0 1,1 34,0 a 17,17 0 1,1 -34,0 z M 71 307 m -71, 0 a 71,71 0 1,1 142,0 a 71,71 0 1,1 -142,0 z M 71 71 m -71, 0 a 71,71 0 1,1 142,0 a 71,71 0 1,1 -142,0 z M 284 543 m -17, 0 a 17,17 0 1,1 34,0 a 17,17 0 1,1 -34,0 z M 284 307 m -17, 0 a 17,17 0 1,1 34,0 a 17,17 0 1,1 -34,0 z M 284 71 m -71, 0 a 71,71 0 1,1 142,0 a 71,71 0 1,1 -142,0 z " horiz-adv-x="540" unicode="("/>
<glyph d="M 71 543 m -71, 0 a 71,71 0 1,1 142,0 a 71,71 0 1,1 -142,0 z M 71 307 m -71, 0 a 71,71 0 1,1 142,0 a 71,71 0 1,1 -142,0 z M 71 71 m -71, 0 a 71,71 0 1,1 142,0 a 71,71 0 1,1 -142,0 z M 284 543 m -17, 0 a 17,17 0 1,1 34,0 a 17,17 0 1,1 -34,0 z M 284 307 m -17, 0 a 17,17 0 1,1 34,0 a 17,17 0 1,1 -34,0 z M 284 71 m -71, 0 a 71,71 0 1,1 142,0 a 71,71 0 1,1 -142,0 z " horiz-adv-x="540" unicode="v"/>
<glyph d="M 71 543 m -17, 0 a 17,17 0 1,1 34,0 a 17,17 0 1,1 -34,0 z M 71 307 m -17, 0 a 17,17 0 1,1 34,0 a 17,17 0 1,1 -34,0 z M 71 71 m -17, 0 a 17,17 0 1,1 34,0 a 17,17 0 1,1 -34,0 z M 284 543 m -71, 0 a 71,71 0 1,1 142,0 a 71,71 0 1,1 -142,0 z M 284 307 m -17, 0 a 17,17 0 1,1 34,0 a 17,17 0 1,1 -34,0 z M 284 71 m -71, 0 a 71,71 0 1,1 142,0 a 71,71 0 1,1 -142,0 z " horiz-adv-x="540" unicode="¨"/>
<glyph d="M 71 543 m -71, 0 a 71,71 0 1,1 142,0 a 71,71 0 1,1 -142,0 z M 71 307 m -17, 0 a 17,17 0 1,1 34,0 a 17,17 0 1,1 -34,0 z M 71 71 m -17, 0 a 17,17 0 1,1 34,0 a 17,17 0 1,1 -34,0 z M 284 543 m -71, 0 a 71,71 0 1,1 142,0 a 71,71 0 1,1 -142,0 z M 284 307 m -17, 0 a 17,17 0 1,1 34,0 a 17,17 0 1,1 -34,0 z M 284 71 m -71, 0 a 71,71 0 1,1 142,0 a 71,71 0 1,1 -142,0 z " horiz-adv-x="540" unicode="î"/>
<glyph d="M 71 543 m -17, 0 a 17,17 0 1,1 34,0 a 17,17 0 1,1 -34,0 z M 71 307 m -71, 0 a 71,71 0 1,1 142,0 a 71,71 0 1,1 -142,0 z M 71 71 m -17, 0 a 17,17 0 1,1 34,0 a 17,17 0 1,1 -34,0 z M 284 543 m -71, 0 a 71,71 0 1,1 142,0 a 71,71 0 1,1 -142,0 z M 284 307 m -17, 0 a 17,17 0 1,1 34,0 a 17,17 0 1,1 -34,0 z M 284 71 m -71, 0 a 71,71 0 1,1 142,0 a 71,71 0 1,1 -142,0 z " horiz-adv-x="540" unicode="9"/>
<glyph d="M 71 543 m -71, 0 a 71,71 0 1,1 142,0 a 71,71 0 1,1 -142,0 z M 71 307 m -71, 0 a 71,71 0 1,1 142,0 a 71,71 0 1,1 -142,0 z M 71 71 m -17, 0 a 17,17 0 1,1 34,0 a 17,17 0 1,1 -34,0 z M 284 543 m -71, 0 a 71,71 0 1,1 142,0 a 71,71 0 1,1 -142,0 z M 284 307 m -17, 0 a 17,17 0 1,1 34,0 a 17,17 0 1,1 -34,0 z M 284 71 m -71, 0 a 71,71 0 1,1 142,0 a 71,71 0 1,1 -142,0 z " horiz-adv-x="540" unicode="ë"/>
<glyph d="M 71 543 m -17, 0 a 17,17 0 1,1 34,0 a 17,17 0 1,1 -34,0 z M 71 307 m -17, 0 a 17,17 0 1,1 34,0 a 17,17 0 1,1 -34,0 z M 71 71 m -71, 0 a 71,71 0 1,1 142,0 a 71,71 0 1,1 -142,0 z M 284 543 m -71, 0 a 71,71 0 1,1 142,0 a 71,71 0 1,1 -142,0 z M 284 307 m -17, 0 a 17,17 0 1,1 34,0 a 17,17 0 1,1 -34,0 z M 284 71 m -71, 0 a 71,71 0 1,1 142,0 a 71,71 0 1,1 -142,0 z " horiz-adv-x="540" unicode="#"/>
<glyph d="M 71 543 m -71, 0 a 71,71 0 1,1 142,0 a 71,71 0 1,1 -142,0 z M 71 307 m -17, 0 a 17,17 0 1,1 34,0 a 17,17 0 1,1 -34,0 z M 71 71 m -71, 0 a 71,71 0 1,1 142,0 a 71,71 0 1,1 -142,0 z M 284 543 m -71, 0 a 71,71 0 1,1 142,0 a 71,71 0 1,1 -142,0 z M 284 307 m -17, 0 a 17,17 0 1,1 34,0 a 17,17 0 1,1 -34,0 z M 284 71 m -71, 0 a 71,71 0 1,1 142,0 a 71,71 0 1,1 -142,0 z " horiz-adv-x="540" unicode="x"/>
<glyph d="M 71 543 m -17, 0 a 17,17 0 1,1 34,0 a 17,17 0 1,1 -34,0 z M 71 307 m -71, 0 a 71,71 0 1,1 142,0 a 71,71 0 1,1 -142,0 z M 71 71 m -71, 0 a 71,71 0 1,1 142,0 a 71,71 0 1,1 -142,0 z M 284 543 m -71, 0 a 71,71 0 1,1 142,0 a 71,71 0 1,1 -142,0 z M 284 307 m -17, 0 a 17,17 0 1,1 34,0 a 17,17 0 1,1 -34,0 z M 284 71 m -71, 0 a 71,71 0 1,1 142,0 a 71,71 0 1,1 -142,0 z " horiz-adv-x="540" unicode="è"/>
<glyph d="M 71 543 m -71, 0 a 71,71 0 1,1 142,0 a 71,71 0 1,1 -142,0 z M 71 307 m -71, 0 a 71,71 0 1,1 142,0 a 71,71 0 1,1 -142,0 z M 71 71 m -71, 0 a 71,71 0 1,1 142,0 a 71,71 0 1,1 -142,0 z M 284 543 m -71, 0 a 71,71 0 1,1 142,0 a 71,71 0 1,1 -142,0 z M 284 307 m -17, 0 a 17,17 0 1,1 34,0 a 17,17 0 1,1 -34,0 z M 284 71 m -71, 0 a 71,71 0 1,1 142,0 a 71,71 0 1,1 -142,0 z " horiz-adv-x="540" unicode="ç"/>
<glyph d="M 71 543 m -17, 0 a 17,17 0 1,1 34,0 a 17,17 0 1,1 -34,0 z M 71 307 m -17, 0 a 17,17 0 1,1 34,0 a 17,17 0 1,1 -34,0 z M 71 71 m -17, 0 a 17,17 0 1,1 34,0 a 17,17 0 1,1 -34,0 z M 284 543 m -17, 0 a 17,17 0 1,1 34,0 a 17,17 0 1,1 -34,0 z M 284 307 m -71, 0 a 71,71 0 1,1 142,0 a 71,71 0 1,1 -142,0 z M 284 71 m -71, 0 a 71,71 0 1,1 142,0 a 71,71 0 1,1 -142,0 z " horiz-adv-x="540" unicode="&lt;"/>
<glyph d="M 71 543 m -71, 0 a 71,71 0 1,1 142,0 a 71,71 0 1,1 -142,0 z M 71 307 m -17, 0 a 17,17 0 1,1 34,0 a 17,17 0 1,1 -34,0 z M 71 71 m -17, 0 a 17,17 0 1,1 34,0 a 17,17 0 1,1 -34,0 z M 284 543 m -17, 0 a 17,17 0 1,1 34,0 a 17,17 0 1,1 -34,0 z M 284 307 m -71, 0 a 71,71 0 1,1 142,0 a 71,71 0 1,1 -142,0 z M 284 71 m -71, 0 a 71,71 0 1,1 142,0 a 71,71 0 1,1 -142,0 z " horiz-adv-x="540" unicode="û"/>
<glyph d="M 71 543 m -17, 0 a 17,17 0 1,1 34,0 a 17,17 0 1,1 -34,0 z M 71 307 m -71, 0 a 71,71 0 1,1 142,0 a 71,71 0 1,1 -142,0 z M 71 71 m -17, 0 a 17,17 0 1,1 34,0 a 17,17 0 1,1 -34,0 z M 284 543 m -17, 0 a 17,17 0 1,1 34,0 a 17,17 0 1,1 -34,0 z M 284 307 m -71, 0 a 71,71 0 1,1 142,0 a 71,71 0 1,1 -142,0 z M 284 71 m -71, 0 a 71,71 0 1,1 142,0 a 71,71 0 1,1 -142,0 z " horiz-adv-x="540" unicode="/"/>
<glyph d="M 71 543 m -71, 0 a 71,71 0 1,1 142,0 a 71,71 0 1,1 -142,0 z M 71 307 m -71, 0 a 71,71 0 1,1 142,0 a 71,71 0 1,1 -142,0 z M 71 71 m -17, 0 a 17,17 0 1,1 34,0 a 17,17 0 1,1 -34,0 z M 284 543 m -17, 0 a 17,17 0 1,1 34,0 a 17,17 0 1,1 -34,0 z M 284 307 m -71, 0 a 71,71 0 1,1 142,0 a 71,71 0 1,1 -142,0 z M 284 71 m -71, 0 a 71,71 0 1,1 142,0 a 71,71 0 1,1 -142,0 z " horiz-adv-x="540" unicode="ü"/>
<glyph d="M 71 543 m -17, 0 a 17,17 0 1,1 34,0 a 17,17 0 1,1 -34,0 z M 71 307 m -17, 0 a 17,17 0 1,1 34,0 a 17,17 0 1,1 -34,0 z M 71 71 m -71, 0 a 71,71 0 1,1 142,0 a 71,71 0 1,1 -142,0 z M 284 543 m -17, 0 a 17,17 0 1,1 34,0 a 17,17 0 1,1 -34,0 z M 284 307 m -71, 0 a 71,71 0 1,1 142,0 a 71,71 0 1,1 -142,0 z M 284 71 m -71, 0 a 71,71 0 1,1 142,0 a 71,71 0 1,1 -142,0 z " horiz-adv-x="540" unicode=")"/>
<glyph d="M 71 543 m -71, 0 a 71,71 0 1,1 142,0 a 71,71 0 1,1 -142,0 z M 71 307 m -17, 0 a 17,17 0 1,1 34,0 a 17,17 0 1,1 -34,0 z M 71 71 m -71, 0 a 71,71 0 1,1 142,0 a 71,71 0 1,1 -142,0 z M 284 543 m -17, 0 a 17,17 0 1,1 34,0 a 17,17 0 1,1 -34,0 z M 284 307 m -71, 0 a 71,71 0 1,1 142,0 a 71,71 0 1,1 -142,0 z M 284 71 m -71, 0 a 71,71 0 1,1 142,0 a 71,71 0 1,1 -142,0 z " horiz-adv-x="540" unicode="z"/>
<glyph d="M 71 543 m -17, 0 a 17,17 0 1,1 34,0 a 17,17 0 1,1 -34,0 z M 71 307 m -71, 0 a 71,71 0 1,1 142,0 a 71,71 0 1,1 -142,0 z M 71 71 m -71, 0 a 71,71 0 1,1 142,0 a 71,71 0 1,1 -142,0 z M 284 543 m -17, 0 a 17,17 0 1,1 34,0 a 17,17 0 1,1 -34,0 z M 284 307 m -71, 0 a 71,71 0 1,1 142,0 a 71,71 0 1,1 -142,0 z M 284 71 m -71, 0 a 71,71 0 1,1 142,0 a 71,71 0 1,1 -142,0 z " horiz-adv-x="540" unicode="&quot;"/>
<glyph d="M 71 543 m -71, 0 a 71,71 0 1,1 142,0 a 71,71 0 1,1 -142,0 z M 71 307 m -71, 0 a 71,71 0 1,1 142,0 a 71,71 0 1,1 -142,0 z M 71 71 m -71, 0 a 71,71 0 1,1 142,0 a 71,71 0 1,1 -142,0 z M 284 543 m -17, 0 a 17,17 0 1,1 34,0 a 17,17 0 1,1 -34,0 z M 284 307 m -71, 0 a 71,71 0 1,1 142,0 a 71,71 0 1,1 -142,0 z M 284 71 m -71, 0 a 71,71 0 1,1 142,0 a 71,71 0 1,1 -142,0 z " horiz-adv-x="540" unicode="à"/>
<glyph d="M 71 543 m -17, 0 a 17,17 0 1,1 34,0 a 17,17 0 1,1 -34,0 z M 71 307 m -17, 0 a 17,17 0 1,1 34,0 a 17,17 0 1,1 -34,0 z M 71 71 m -17, 0 a 17,17 0 1,1 34,0 a 17,17 0 1,1 -34,0 z M 284 543 m -71, 0 a 71,71 0 1,1 142,0 a 71,71 0 1,1 -142,0 z M 284 307 m -71, 0 a 71,71 0 1,1 142,0 a 71,71 0 1,1 -142,0 z M 284 71 m -71, 0 a 71,71 0 1,1 142,0 a 71,71 0 1,1 -142,0 z " horiz-adv-x="540" unicode="_"/>
<glyph d="M 71 543 m -71, 0 a 71,71 0 1,1 142,0 a 71,71 0 1,1 -142,0 z M 71 307 m -17, 0 a 17,17 0 1,1 34,0 a 17,17 0 1,1 -34,0 z M 71 71 m -17, 0 a 17,17 0 1,1 34,0 a 17,17 0 1,1 -34,0 z M 284 543 m -71, 0 a 71,71 0 1,1 142,0 a 71,71 0 1,1 -142,0 z M 284 307 m -71, 0 a 71,71 0 1,1 142,0 a 71,71 0 1,1 -142,0 z M 284 71 m -71, 0 a 71,71 0 1,1 142,0 a 71,71 0 1,1 -142,0 z " horiz-adv-x="540" unicode="ô"/>
<glyph d="M 71 543 m -17, 0 a 17,17 0 1,1 34,0 a 17,17 0 1,1 -34,0 z M 71 307 m -71, 0 a 71,71 0 1,1 142,0 a 71,71 0 1,1 -142,0 z M 71 71 m -17, 0 a 17,17 0 1,1 34,0 a 17,17 0 1,1 -34,0 z M 284 543 m -71, 0 a 71,71 0 1,1 142,0 a 71,71 0 1,1 -142,0 z M 284 307 m -71, 0 a 71,71 0 1,1 142,0 a 71,71 0 1,1 -142,0 z M 284 71 m -71, 0 a 71,71 0 1,1 142,0 a 71,71 0 1,1 -142,0 z " horiz-adv-x="540" unicode="w"/>
<glyph d="M 71 543 m -71, 0 a 71,71 0 1,1 142,0 a 71,71 0 1,1 -142,0 z M 71 307 m -71, 0 a 71,71 0 1,1 142,0 a 71,71 0 1,1 -142,0 z M 71 71 m -17, 0 a 17,17 0 1,1 34,0 a 17,17 0 1,1 -34,0 z M 284 543 m -71, 0 a 71,71 0 1,1 142,0 a 71,71 0 1,1 -142,0 z M 284 307 m -71, 0 a 71,71 0 1,1 142,0 a 71,71 0 1,1 -142,0 z M 284 71 m -71, 0 a 71,71 0 1,1 142,0 a 71,71 0 1,1 -142,0 z " horiz-adv-x="540" unicode="ï"/>
<glyph d="M 71 543 m -17, 0 a 17,17 0 1,1 34,0 a 17,17 0 1,1 -34,0 z M 71 307 m -17, 0 a 17,17 0 1,1 34,0 a 17,17 0 1,1 -34,0 z M 71 71 m -71, 0 a 71,71 0 1,1 142,0 a 71,71 0 1,1 -142,0 z M 284 543 m -71, 0 a 71,71 0 1,1 142,0 a 71,71 0 1,1 -142,0 z M 284 307 m -71, 0 a 71,71 0 1,1 142,0 a 71,71 0 1,1 -142,0 z M 284 71 m -71, 0 a 71,71 0 1,1 142,0 a 71,71 0 1,1 -142,0 z " horiz-adv-x="540" unicode="0"/>
<glyph d="M 71 543 m -71, 0 a 71,71 0 1,1 142,0 a 71,71 0 1,1 -142,0 z M 71 307 m -17, 0 a 17,17 0 1,1 34,0 a 17,17 0 1,1 -34,0 z M 71 71 m -71, 0 a 71,71 0 1,1 142,0 a 71,71 0 1,1 -142,0 z M 284 543 m -71, 0 a 71,71 0 1,1 142,0 a 71,71 0 1,1 -142,0 z M 284 307 m -71, 0 a 71,71 0 1,1 142,0 a 71,71 0 1,1 -142,0 z M 284 71 m -71, 0 a 71,71 0 1,1 142,0 a 71,71 0 1,1 -142,0 z " horiz-adv-x="540" unicode="y"/>
<glyph d="M 71 543 m -17, 0 a 17,17 0 1,1 34,0 a 17,17 0 1,1 -34,0 z M 71 307 m -71, 0 a 71,71 0 1,1 142,0 a 71,71 0 1,1 -142,0 z M 71 71 m -71, 0 a 71,71 0 1,1 142,0 a 71,71 0 1,1 -142,0 z M 284 543 m -71, 0 a 71,71 0 1,1 142,0 a 71,71 0 1,1 -142,0 z M 284 307 m -71, 0 a 71,71 0 1,1 142,0 a 71,71 0 1,1 -142,0 z M 284 71 m -71, 0 a 71,71 0 1,1 142,0 a 71,71 0 1,1 -142,0 z " horiz-adv-x="540" unicode="ù"/>
<glyph d="M 71 543 m -71, 0 a 71,71 0 1,1 142,0 a 71,71 0 1,1 -142,0 z M 71 307 m -71, 0 a 71,71 0 1,1 142,0 a 71,71 0 1,1 -142,0 z M 71 71 m -71, 0 a 71,71 0 1,1 142,0 a 71,71 0 1,1 -142,0 z M 284 543 m -71, 0 a 71,71 0 1,1 142,0 a 71,71 0 1,1 -142,0 z M 284 307 m -71, 0 a 71,71 0 1,1 142,0 a 71,71 0 1,1 -142,0 z M 284 71 m -71, 0 a 71,71 0 1,1 142,0 a 71,71 0 1,1 -142,0 z " horiz-adv-x="540" unicode="é"/>
</font>
</defs>
</svg>
